<svg xmlns="http://www.w3.org/2000/svg" viewBox="0 0 1110 400" width="1110" height="400" role="img" aria-label="Monte Carlo RMSE by sample budget for stress">
<rect width="100%" height="100%" fill="white"/>
<g font-family="Arial, sans-serif" fill="#18243b">
<text x="24" y="27" font-size="19" font-weight="bold">Stress: convergence by payoff budget</text>
<text x="24" y="49" font-size="12">Logarithmic axes. RMSE versus numerical integration. Lower is better.</text>
<text x="64" y="77" font-size="14" font-weight="bold">Strike 80</text>
<line x1="64" x2="342" y1="312.0" y2="312.0" stroke="#e2e8f0"/>
<text x="57" y="316.0" text-anchor="end" font-size="10">0.0145</text>
<line x1="64" x2="342" y1="256.5" y2="256.5" stroke="#e2e8f0"/>
<text x="57" y="260.5" text-anchor="end" font-size="10">0.0471</text>
<line x1="64" x2="342" y1="201.0" y2="201.0" stroke="#e2e8f0"/>
<text x="57" y="205.0" text-anchor="end" font-size="10">0.153</text>
<line x1="64" x2="342" y1="145.5" y2="145.5" stroke="#e2e8f0"/>
<text x="57" y="149.5" text-anchor="end" font-size="10">0.499</text>
<line x1="64" x2="342" y1="90.0" y2="90.0" stroke="#e2e8f0"/>
<text x="57" y="94.0" text-anchor="end" font-size="10">1.62</text>
<text x="64.0" y="332" text-anchor="middle" font-size="10">1,000</text>
<text x="213.3537134831739" y="332" text-anchor="middle" font-size="10">5,000</text>
<text x="342.0" y="332" text-anchor="middle" font-size="10">20,000</text>
<text x="203.0" y="351" text-anchor="middle" font-size="11">Payoff evaluations</text>
<polyline points="64.00,189.93 213.35,231.49 342.00,256.01" fill="none" stroke="#2563eb" stroke-width="2"/>
<circle cx="64.00" cy="189.93" r="3.5" fill="#2563eb"/>
<circle cx="213.35" cy="231.49" r="3.5" fill="#2563eb"/>
<circle cx="342.00" cy="256.01" r="3.5" fill="#2563eb"/>
<text x="64" y="383" fill="#2563eb" font-size="12">IID</text>
<polyline points="64.00,234.42 213.35,277.51 342.00,301.50" fill="none" stroke="#15803d" stroke-width="2"/>
<circle cx="64.00" cy="234.42" r="3.5" fill="#15803d"/>
<circle cx="213.35" cy="277.51" r="3.5" fill="#15803d"/>
<circle cx="342.00" cy="301.50" r="3.5" fill="#15803d"/>
<text x="119" y="383" fill="#15803d" font-size="12">IS</text>
<polyline points="64.00,191.99 213.35,231.27 342.00,261.44" fill="none" stroke="#9333ea" stroke-width="2"/>
<circle cx="64.00" cy="191.99" r="3.5" fill="#9333ea"/>
<circle cx="213.35" cy="231.27" r="3.5" fill="#9333ea"/>
<circle cx="342.00" cy="261.44" r="3.5" fill="#9333ea"/>
<text x="174" y="383" fill="#9333ea" font-size="12">AV</text>
<polyline points="64.00,199.66 213.35,234.11 342.00,270.40" fill="none" stroke="#db2777" stroke-width="2"/>
<circle cx="64.00" cy="199.66" r="3.5" fill="#db2777"/>
<circle cx="213.35" cy="234.11" r="3.5" fill="#db2777"/>
<circle cx="342.00" cy="270.40" r="3.5" fill="#db2777"/>
<text x="229" y="383" fill="#db2777" font-size="12">CV</text>
<polyline points="64.00,120.77 213.35,145.44 342.00,182.55" fill="none" stroke="#b45309" stroke-width="2"/>
<circle cx="64.00" cy="120.77" r="3.5" fill="#b45309"/>
<circle cx="213.35" cy="145.44" r="3.5" fill="#b45309"/>
<circle cx="342.00" cy="182.55" r="3.5" fill="#b45309"/>
<text x="284" y="383" fill="#b45309" font-size="12">MH</text>
<text x="434" y="77" font-size="14" font-weight="bold">Strike 100</text>
<line x1="434" x2="712" y1="312.0" y2="312.0" stroke="#e2e8f0"/>
<text x="427" y="316.0" text-anchor="end" font-size="10">0.0145</text>
<line x1="434" x2="712" y1="256.5" y2="256.5" stroke="#e2e8f0"/>
<text x="427" y="260.5" text-anchor="end" font-size="10">0.0471</text>
<line x1="434" x2="712" y1="201.0" y2="201.0" stroke="#e2e8f0"/>
<text x="427" y="205.0" text-anchor="end" font-size="10">0.153</text>
<line x1="434" x2="712" y1="145.5" y2="145.5" stroke="#e2e8f0"/>
<text x="427" y="149.5" text-anchor="end" font-size="10">0.499</text>
<line x1="434" x2="712" y1="90.0" y2="90.0" stroke="#e2e8f0"/>
<text x="427" y="94.0" text-anchor="end" font-size="10">1.62</text>
<text x="434.0" y="332" text-anchor="middle" font-size="10">1,000</text>
<text x="583.3537134831739" y="332" text-anchor="middle" font-size="10">5,000</text>
<text x="712.0" y="332" text-anchor="middle" font-size="10">20,000</text>
<text x="573.0" y="351" text-anchor="middle" font-size="11">Payoff evaluations</text>
<polyline points="434.00,156.64 583.35,203.08 712.00,231.97" fill="none" stroke="#2563eb" stroke-width="2"/>
<circle cx="434.00" cy="156.64" r="3.5" fill="#2563eb"/>
<circle cx="583.35" cy="203.08" r="3.5" fill="#2563eb"/>
<circle cx="712.00" cy="231.97" r="3.5" fill="#2563eb"/>
<text x="434" y="383" fill="#2563eb" font-size="12">IID</text>
<polyline points="434.00,215.45 583.35,252.96 712.00,283.29" fill="none" stroke="#15803d" stroke-width="2"/>
<circle cx="434.00" cy="215.45" r="3.5" fill="#15803d"/>
<circle cx="583.35" cy="252.96" r="3.5" fill="#15803d"/>
<circle cx="712.00" cy="283.29" r="3.5" fill="#15803d"/>
<text x="489" y="383" fill="#15803d" font-size="12">IS</text>
<polyline points="434.00,159.63 583.35,200.31 712.00,237.76" fill="none" stroke="#9333ea" stroke-width="2"/>
<circle cx="434.00" cy="159.63" r="3.5" fill="#9333ea"/>
<circle cx="583.35" cy="200.31" r="3.5" fill="#9333ea"/>
<circle cx="712.00" cy="237.76" r="3.5" fill="#9333ea"/>
<text x="544" y="383" fill="#9333ea" font-size="12">AV</text>
<polyline points="434.00,180.01 583.35,214.86 712.00,252.07" fill="none" stroke="#db2777" stroke-width="2"/>
<circle cx="434.00" cy="180.01" r="3.5" fill="#db2777"/>
<circle cx="583.35" cy="214.86" r="3.5" fill="#db2777"/>
<circle cx="712.00" cy="252.07" r="3.5" fill="#db2777"/>
<text x="599" y="383" fill="#db2777" font-size="12">CV</text>
<polyline points="434.00,105.26 583.35,145.53 712.00,171.71" fill="none" stroke="#b45309" stroke-width="2"/>
<circle cx="434.00" cy="105.26" r="3.5" fill="#b45309"/>
<circle cx="583.35" cy="145.53" r="3.5" fill="#b45309"/>
<circle cx="712.00" cy="171.71" r="3.5" fill="#b45309"/>
<text x="654" y="383" fill="#b45309" font-size="12">MH</text>
<text x="804" y="77" font-size="14" font-weight="bold">Strike 120</text>
<line x1="804" x2="1082" y1="312.0" y2="312.0" stroke="#e2e8f0"/>
<text x="797" y="316.0" text-anchor="end" font-size="10">0.0145</text>
<line x1="804" x2="1082" y1="256.5" y2="256.5" stroke="#e2e8f0"/>
<text x="797" y="260.5" text-anchor="end" font-size="10">0.0471</text>
<line x1="804" x2="1082" y1="201.0" y2="201.0" stroke="#e2e8f0"/>
<text x="797" y="205.0" text-anchor="end" font-size="10">0.153</text>
<line x1="804" x2="1082" y1="145.5" y2="145.5" stroke="#e2e8f0"/>
<text x="797" y="149.5" text-anchor="end" font-size="10">0.499</text>
<line x1="804" x2="1082" y1="90.0" y2="90.0" stroke="#e2e8f0"/>
<text x="797" y="94.0" text-anchor="end" font-size="10">1.62</text>
<text x="804.0" y="332" text-anchor="middle" font-size="10">1,000</text>
<text x="953.3537134831739" y="332" text-anchor="middle" font-size="10">5,000</text>
<text x="1082.0" y="332" text-anchor="middle" font-size="10">20,000</text>
<text x="943.0" y="351" text-anchor="middle" font-size="11">Payoff evaluations</text>
<polyline points="804.00,144.33 953.35,185.63 1082.00,210.62" fill="none" stroke="#2563eb" stroke-width="2"/>
<circle cx="804.00" cy="144.33" r="3.5" fill="#2563eb"/>
<circle cx="953.35" cy="185.63" r="3.5" fill="#2563eb"/>
<circle cx="1082.00" cy="210.62" r="3.5" fill="#2563eb"/>
<text x="804" y="383" fill="#2563eb" font-size="12">IID</text>
<polyline points="804.00,171.93 953.35,204.41 1082.00,239.78" fill="none" stroke="#15803d" stroke-width="2"/>
<circle cx="804.00" cy="171.93" r="3.5" fill="#15803d"/>
<circle cx="953.35" cy="204.41" r="3.5" fill="#15803d"/>
<circle cx="1082.00" cy="239.78" r="3.5" fill="#15803d"/>
<text x="859" y="383" fill="#15803d" font-size="12">IS</text>
<polyline points="804.00,160.37 953.35,204.58 1082.00,228.99" fill="none" stroke="#9333ea" stroke-width="2"/>
<circle cx="804.00" cy="160.37" r="3.5" fill="#9333ea"/>
<circle cx="953.35" cy="204.58" r="3.5" fill="#9333ea"/>
<circle cx="1082.00" cy="228.99" r="3.5" fill="#9333ea"/>
<text x="914" y="383" fill="#9333ea" font-size="12">AV</text>
<polyline points="804.00,176.90 953.35,212.22 1082.00,246.01" fill="none" stroke="#db2777" stroke-width="2"/>
<circle cx="804.00" cy="176.90" r="3.5" fill="#db2777"/>
<circle cx="953.35" cy="212.22" r="3.5" fill="#db2777"/>
<circle cx="1082.00" cy="246.01" r="3.5" fill="#db2777"/>
<text x="969" y="383" fill="#db2777" font-size="12">CV</text>
<polyline points="804.00,98.58 953.35,132.88 1082.00,167.91" fill="none" stroke="#b45309" stroke-width="2"/>
<circle cx="804.00" cy="98.58" r="3.5" fill="#b45309"/>
<circle cx="953.35" cy="132.88" r="3.5" fill="#b45309"/>
<circle cx="1082.00" cy="167.91" r="3.5" fill="#b45309"/>
<text x="1024" y="383" fill="#b45309" font-size="12">MH</text>
</g></svg>